<svg xmlns="http://www.w3.org/2000/svg" viewBox="0 0 182.73 84.98"><defs><style>.cls-1{fill:#fb7d4e;}.cls-2,.cls-3{fill:#13986b;}.cls-3{stroke:#13986b;stroke-linecap:round;stroke-linejoin:round;}</style></defs><title>Asset 9</title><g id="Layer_2" data-name="Layer 2"><g id="Layer_1-2" data-name="Layer 1"><path class="cls-1" d="M9.78,41.68l12,22.6a1,1,0,0,1-.91,1.51H17.61a1,1,0,0,1-.91-.55L5,42.63A1,1,0,0,1,6,41.14H8.87A1,1,0,0,1,9.78,41.68Z"/><path class="cls-1" d="M2.92,48.29,10.2,62a.28.28,0,0,1-.25.41H7.35a.29.29,0,0,1-.25-.15L0,48.55a.28.28,0,0,1,.25-.4h2.4A.27.27,0,0,1,2.92,48.29Z"/><path class="cls-1" d="M68.29,41.67l-12,22.65a1,1,0,0,0,.88,1.47h3.33a1,1,0,0,0,.88-.54L73,42.59a1,1,0,0,0-.89-1.45h-3A1,1,0,0,0,68.29,41.67Z"/><path class="cls-1" d="M75.78,48.28,68.47,62.05a.24.24,0,0,0,.21.36h2.68a.24.24,0,0,0,.22-.13L78.69,48.5a.24.24,0,0,0-.22-.35H76A.25.25,0,0,0,75.78,48.28Z"/><path class="cls-2" d="M54.94,53.94,49.06,65.79,39.82,84.41a1,1,0,0,1-1.81,0L22.89,53.86a1,1,0,0,1,.91-1.47H54Z"/><path class="cls-2" d="M66.78,30.06l-8,16.06a1.07,1.07,0,0,1-1,.59H20a1.07,1.07,0,0,1-1-.59l-.52-1.06-7.43-15a1.07,1.07,0,0,1,1-1.54H65.83A1.06,1.06,0,0,1,66.78,30.06Z"/><path class="cls-3" d="M39.08.5a10,10,0,0,1,6.1,2.17h0a.05.05,0,0,1,0,0,4,4,0,0,1,.68.62h0a3.49,3.49,0,0,1,.73,1.77,1.36,1.36,0,0,1,0,.29v.09c0,.11,0,.22,0,.32L46.3,16.69a2,2,0,0,1-.78,1.54L40.26,22.3a2.25,2.25,0,0,1-2.62,0l-5.26-4.07a2,2,0,0,1-.78-1.54L31.24,5.8c0-.1,0-.21,0-.32V5.39a1.36,1.36,0,0,1,0-.29A3.49,3.49,0,0,1,32,3.33h0a4,4,0,0,1,.68-.62.05.05,0,0,1,0,0h0A10,10,0,0,1,38.82.5"/><circle class="cls-2" cx="54.13" cy="53.37" r="0.98"/><path class="cls-2" d="M99.32,36.85h15.39V40.6H104v6.51h10v3.74H104V61.11H99.32Z"/><path class="cls-2" d="M123.19,38.58A2.46,2.46,0,0,1,120.53,41a2.46,2.46,0,1,1,2.66-2.45Zm-4.94,22.53V43.59h4.63V61.11Z"/><path class="cls-2" d="M133.3,38.46v5.13h4.49v3.47H133.3v7.28c0,2.14.49,3.42,2.43,3.42a6.88,6.88,0,0,0,1.9-.23l.09,3.5a10.12,10.12,0,0,1-3.46.51,5.48,5.48,0,0,1-4-1.56c-1-1-1.42-2.78-1.42-5V47.06h-2.63V43.59h2.63V39.53Z"/><path class="cls-1" d="M158.47,55.81c0,2.14.06,3.9.15,5.3h-4.05l-.22-2.92h-.11a6.88,6.88,0,0,1-6.18,3.35c-3.19,0-6.63-1.75-6.63-7.86V43.59h4.63v9.26c0,3,1.07,4.95,3.68,4.95a4.2,4.2,0,0,0,3.85-2.58,3.41,3.41,0,0,0,.25-1.32V43.59h4.63Z"/><path class="cls-1" d="M163.68,49.49c0-2.24-.06-4.2-.14-5.9h4.06l.23,2.88h.07a7.77,7.77,0,0,1,6.78-3.32c4.19,0,8,3.34,8,8.88,0,6.35-4.4,9.51-8.77,9.51a6.51,6.51,0,0,1-5.58-2.5h-.07v9.27h-4.63Zm4.63,4a6,6,0,0,0,.1,1.12A4.66,4.66,0,0,0,172.94,58c3.1,0,5.08-2.19,5.08-5.74,0-3-1.74-5.57-5-5.57a4.73,4.73,0,0,0-4.6,3.63,4.86,4.86,0,0,0-.16,1.06Z"/></g></g></svg>