<svg xmlns="http://www.w3.org/2000/svg" viewBox="0 0 83.41 129.27"><defs><style>.cls-1{fill:#fb7d4e;}.cls-2,.cls-3{fill:#13986b;}.cls-3{stroke:#13986b;stroke-linecap:round;stroke-linejoin:round;}</style></defs><title>Asset 12</title><g id="Layer_2" data-name="Layer 2"><g id="Layer_1-2" data-name="Layer 1"><path class="cls-1" d="M14.25,41.68l12,22.6a1,1,0,0,1-.91,1.51H22.09a1,1,0,0,1-.91-.55L9.51,42.63a1,1,0,0,1,.92-1.49h2.92A1,1,0,0,1,14.25,41.68Z" transform="translate(-2.68)"/><path class="cls-1" d="M7.4,48.29,14.68,62a.28.28,0,0,1-.25.41h-2.6a.28.28,0,0,1-.25-.15L4.51,48.55a.27.27,0,0,1,.25-.4H7.15A.27.27,0,0,1,7.4,48.29Z" transform="translate(-2.68)"/><path class="cls-1" d="M72.77,41.67l-12,22.65a1,1,0,0,0,.88,1.47h3.32a1,1,0,0,0,.89-.54L77.52,42.59a1,1,0,0,0-.89-1.45h-3A1,1,0,0,0,72.77,41.67Z" transform="translate(-2.68)"/><path class="cls-1" d="M80.26,48.28,72.94,62.05a.25.25,0,0,0,.22.36h2.68a.25.25,0,0,0,.22-.13l7.1-13.78a.24.24,0,0,0-.21-.35H80.47A.23.23,0,0,0,80.26,48.28Z" transform="translate(-2.68)"/><path class="cls-2" d="M59.42,53.94,53.53,65.79,44.3,84.41a1,1,0,0,1-1.81,0L27.37,53.86a1,1,0,0,1,.9-1.47H58.46Z" transform="translate(-2.68)"/><path class="cls-2" d="M71.26,30.06l-8,16.06a1,1,0,0,1-.95.59H24.49a1.07,1.07,0,0,1-.95-.59L23,45.06l-7.43-15a1.07,1.07,0,0,1,.95-1.54H70.31A1.06,1.06,0,0,1,71.26,30.06Z" transform="translate(-2.68)"/><path class="cls-3" d="M43.56.5a10,10,0,0,1,6.1,2.17h0a.05.05,0,0,1,0,0,4,4,0,0,1,.68.62h0a3.49,3.49,0,0,1,.73,1.77,1.36,1.36,0,0,1,0,.29v.09c0,.11,0,.22,0,.32l-.36,10.89A2,2,0,0,1,50,18.23L44.74,22.3a2.11,2.11,0,0,1-1.31.42,2.07,2.07,0,0,1-1.31-.42l-5.26-4.07a2,2,0,0,1-.78-1.54L35.72,5.8c0-.1,0-.21,0-.32V5.39a1.36,1.36,0,0,1,0-.29,3.49,3.49,0,0,1,.73-1.77h0a4,4,0,0,1,.68-.62.05.05,0,0,1,0,0h0A10,10,0,0,1,43.3.5" transform="translate(-2.68)"/><circle class="cls-2" cx="55.94" cy="53.37" r="0.98"/><path class="cls-2" d="M2.68,97.81H18.06v3.74H7.31v6.51h10v3.75h-10v10.26H2.68Z" transform="translate(-2.68)"/><path class="cls-2" d="M26.54,99.53A2.45,2.45,0,0,1,23.88,102a2.43,2.43,0,0,1-2.57-2.45,2.46,2.46,0,0,1,2.63-2.45A2.44,2.44,0,0,1,26.54,99.53ZM21.6,122.07V104.54h4.63v17.53Z" transform="translate(-2.68)"/><path class="cls-2" d="M36.66,99.42v5.12h4.49V108H36.66v7.28c0,2.14.48,3.41,2.42,3.41a6.91,6.91,0,0,0,1.9-.22l.09,3.5a10.38,10.38,0,0,1-3.46.51,5.44,5.44,0,0,1-4-1.56c-1-1.06-1.42-2.79-1.42-5V108H29.52v-3.48h2.63v-4.05Z" transform="translate(-2.68)"/><path class="cls-1" d="M61.83,116.76c0,2.15.06,3.9.14,5.31h-4l-.21-2.92H57.6a6.9,6.9,0,0,1-6.18,3.35c-3.19,0-6.64-1.75-6.64-7.87V104.54h4.63v9.26c0,3,1.08,5,3.69,5A4.2,4.2,0,0,0,57,116.17a3.57,3.57,0,0,0,.25-1.32V104.54h4.63Z" transform="translate(-2.68)"/><path class="cls-1" d="M67,110.45c0-2.24,0-4.2-.14-5.91H71l.22,2.88h.08A7.77,7.77,0,0,1,78,104.11c4.19,0,8,3.34,8,8.87,0,6.36-4.4,9.52-8.76,9.52A6.47,6.47,0,0,1,71.74,120h-.07v9.28H67Zm4.64,4a6.86,6.86,0,0,0,.09,1.12A4.67,4.67,0,0,0,76.29,119c3.1,0,5.08-2.2,5.08-5.75,0-3-1.73-5.56-4.94-5.56a4.73,4.73,0,0,0-4.6,3.63,4.25,4.25,0,0,0-.16,1.06Z" transform="translate(-2.68)"/></g></g></svg>