<svg xmlns="http://www.w3.org/2000/svg" viewBox="0 0 78.72 84.98"><defs><style>.cls-1{fill:#fb7d4e;}.cls-2,.cls-3{fill:#13986b;}.cls-3{stroke:#13986b;stroke-linecap:round;stroke-linejoin:round;}</style></defs><title>Asset 6</title><g id="Layer_2" data-name="Layer 2"><g id="Layer_1-2" data-name="Layer 1"><path class="cls-1" d="M9.78,41.68l12,22.6a1,1,0,0,1-.91,1.51H17.61a1,1,0,0,1-.91-.55L5,42.63A1,1,0,0,1,6,41.14H8.87A1,1,0,0,1,9.78,41.68Z"/><path class="cls-1" d="M2.92,48.29,10.2,62a.28.28,0,0,1-.25.41H7.35a.29.29,0,0,1-.25-.15L0,48.55a.28.28,0,0,1,.25-.4h2.4A.27.27,0,0,1,2.92,48.29Z"/><path class="cls-1" d="M68.29,41.67l-12,22.65a1,1,0,0,0,.88,1.47h3.33a1,1,0,0,0,.88-.54L73,42.59a1,1,0,0,0-.89-1.45h-3A1,1,0,0,0,68.29,41.67Z"/><path class="cls-1" d="M75.78,48.28,68.47,62.05a.24.24,0,0,0,.21.36h2.68a.24.24,0,0,0,.22-.13L78.69,48.5a.24.24,0,0,0-.22-.35H76A.25.25,0,0,0,75.78,48.28Z"/><path class="cls-2" d="M54.94,53.94,49.06,65.79,39.82,84.41a1,1,0,0,1-1.81,0L22.89,53.86a1,1,0,0,1,.91-1.47H54Z"/><path class="cls-2" d="M66.78,30.06l-8,16.06a1.07,1.07,0,0,1-1,.59H20a1.07,1.07,0,0,1-1-.59l-.52-1.06-7.43-15a1.07,1.07,0,0,1,1-1.54H65.83A1.06,1.06,0,0,1,66.78,30.06Z"/><path class="cls-3" d="M39.08.5a10,10,0,0,1,6.1,2.17h0a.05.05,0,0,1,0,0,4,4,0,0,1,.68.62h0a3.49,3.49,0,0,1,.73,1.77,1.36,1.36,0,0,1,0,.29v.09c0,.11,0,.22,0,.32L46.3,16.69a2,2,0,0,1-.78,1.54L40.26,22.3a2.25,2.25,0,0,1-2.62,0l-5.26-4.07a2,2,0,0,1-.78-1.54L31.24,5.8c0-.1,0-.21,0-.32V5.39a1.36,1.36,0,0,1,0-.29A3.49,3.49,0,0,1,32,3.33h0a4,4,0,0,1,.68-.62.05.05,0,0,1,0,0h0A10,10,0,0,1,38.82.5"/><circle class="cls-2" cx="54.13" cy="53.37" r="0.98"/></g></g></svg>