<svg id="Layer_1" data-name="Layer 1" xmlns="http://www.w3.org/2000/svg" viewBox="0 0 43 51.5"><defs><style>.cls-1,.cls-2{fill:none;stroke:#fff;stroke-width:3px;}.cls-1{stroke-miterlimit:10;}.cls-2{stroke-linecap:round;stroke-linejoin:round;}</style></defs><title>bell</title><path class="cls-1" d="M35,51.13a5,5,0,0,1-10,0A4.6,4.6,0,0,1,25.14,50h9.72A4.6,4.6,0,0,1,35,51.13Z" transform="translate(-8.5 -6)"/><path class="cls-1" d="M35,12.8c0-.1,0-.2,0-.3a5,5,0,0,0-10,0c0,.1,0,.2,0,.3A16.14,16.14,0,0,0,14,28.15V50H46V28.15A16.14,16.14,0,0,0,35,12.8Z" transform="translate(-8.5 -6)"/><line class="cls-2" x1="1.5" y1="44" x2="41.5" y2="44"/></svg>