<svg id="Layer_1" data-name="Layer 1" xmlns="http://www.w3.org/2000/svg" viewBox="0 0 39 53"><defs><style>.cls-1{fill:none;stroke:#000;stroke-miterlimit:10;stroke-width:3px;}</style></defs><title>passw</title><path class="cls-1" d="M4.5,21.5h30a3,3,0,0,1,3,3v20a7,7,0,0,1-7,7H8.5a7,7,0,0,1-7-7v-20A3,3,0,0,1,4.5,21.5Z"/><path class="cls-1" d="M19.5,1.5h0a15,15,0,0,1,15,15v5a0,0,0,0,1,0,0H4.5a0,0,0,0,1,0,0v-5a15,15,0,0,1,15-15Z"/><circle class="cls-1" cx="19.5" cy="33.5" r="4.5"/><line class="cls-1" x1="19.5" y1="38" x2="19.5" y2="43"/></svg>