<svg id="Layer_1" data-name="Layer 1" xmlns="http://www.w3.org/2000/svg" viewBox="0 0 59 59"><defs><style>.cls-1,.cls-2{fill:none;stroke:#000;stroke-width:3px;}.cls-1{stroke-linejoin:round;}.cls-2{stroke-miterlimit:10;}</style></defs><title>setting</title><path class="cls-1" d="M51.93,23.93h-3.3a19.81,19.81,0,0,0-1.17-2.81l2.34-2.34a6.07,6.07,0,0,0-8.58-8.58l-2.34,2.34a19.81,19.81,0,0,0-2.81-1.17V8.07a6.07,6.07,0,1,0-12.14,0v3.3a19.81,19.81,0,0,0-2.81,1.17L18.78,10.2a6.07,6.07,0,0,0-8.58,8.58l2.34,2.34a19.81,19.81,0,0,0-1.17,2.81H8.07a6.07,6.07,0,1,0,0,12.14h3.3a19.81,19.81,0,0,0,1.17,2.81L10.2,41.22a6.07,6.07,0,0,0,8.58,8.58l2.34-2.34a19.81,19.81,0,0,0,2.81,1.17v3.3a6.07,6.07,0,1,0,12.14,0v-3.3a19.81,19.81,0,0,0,2.81-1.17l2.34,2.34a6.07,6.07,0,0,0,8.58-8.58l-2.34-2.34a19.81,19.81,0,0,0,1.17-2.81h3.3a6.07,6.07,0,1,0,0-12.14Z" transform="translate(-0.5 -0.5)"/><circle class="cls-2" cx="29.5" cy="29.5" r="8"/></svg>