<svg id="Layer_1" data-name="Layer 1" xmlns="http://www.w3.org/2000/svg" viewBox="0 0 58.55 56.07"><defs><style>.cls-1{fill:none;stroke:#000;stroke-miterlimit:10;stroke-width:3px;}</style></defs><title>star</title><path class="cls-1" d="M32.42,4.23l6.69,13.55A2.44,2.44,0,0,0,41,19.12L55.9,21.29a2.45,2.45,0,0,1,1.36,4.17L46.44,36a2.46,2.46,0,0,0-.71,2.17l2.56,14.89a2.45,2.45,0,0,1-3.55,2.58l-13.38-7a2.4,2.4,0,0,0-2.27,0l-13.38,7a2.45,2.45,0,0,1-3.55-2.58l2.56-14.89A2.46,2.46,0,0,0,14,36L3.19,25.46a2.45,2.45,0,0,1,1.36-4.17l15-2.17a2.44,2.44,0,0,0,1.84-1.34L28,4.23A2.45,2.45,0,0,1,32.42,4.23Z" transform="translate(-0.95 -1.36)"/></svg>