<svg id="Layer_1" data-name="Layer 1" xmlns="http://www.w3.org/2000/svg" viewBox="0 0 59 48.3"><defs><style>.cls-1{fill:none;stroke:#000;stroke-linejoin:round;stroke-width:3px;}</style></defs><title>trainer</title><path class="cls-1" d="M20.11,14.94C15,7.81,11.12,8,11.12,8a14.27,14.27,0,0,0-6.83,4.67C1.21,16.4,1.74,19.24,3,30.94s5.34,14.57,7.14,17.23S16.75,53,16.75,53s3-.67,3.86-.81S28.81,54,32.16,53,44.9,51.14,48.65,38c0,0,15-5.72,7-19.28,0,0-3.68-6.93-15.67-2.27,0,0-8.24,3.72-4.48,11.23,0,0-11.26-3.76-15,9.38,0,0-2.45-6.57-6.86-9.38,0,0-4.3-5.08-3.88-9.11,0,0,1.35-1.21,2.29.66,0,0,2.76,1.3,8-3.57Z" transform="translate(-0.5 -6.49)"/></svg>