<?xml version="1.0" encoding="UTF-8"?>
<svg xmlns="http://www.w3.org/2000/svg" xmlns:xlink="http://www.w3.org/1999/xlink" width="48pt" height="48pt" viewBox="0 0 48 48" version="1.1">
<g id="surface396364">
<path style=" stroke:none;fill-rule:nonzero;fill:rgb(3.529412%,83.921569%,24.705882%);fill-opacity:1;" d="M 44 7 L 4 23 L 44 39 L 37 23 Z M 36 23 L 17 23 L 35 16 L 36 22 Z M 36 23 "/>
<path style=" stroke:none;fill-rule:nonzero;fill:rgb(10.588235%,36.862745%,12.54902%);fill-opacity:1;" d="M 40.210938 10.667969 L 35.167969 22.199219 L 34.816406 23 L 35.167969 23.800781 L 40.210938 35.332031 L 9.386719 23 L 40.210938 10.667969 M 44 7 L 4 23 L 44 39 L 37 23 Z M 44 7 "/>
<path style=" stroke:none;fill-rule:nonzero;fill:rgb(10.588235%,36.862745%,12.54902%);fill-opacity:1;" d="M 36 22 L 35 16 L 17 23 L 34 30 L 32 25 L 24 23 L 36 23 Z M 27.660156 21 L 33.433594 18.757812 L 33.804688 21 Z M 27.660156 21 "/>
</g>
</svg>
